<mxfile host="app.diagrams.net" modified="2022-10-23T16:30:46.532Z" agent="5.0 (Windows NT 10.0; Win64; x64) AppleWebKit/537.36 (KHTML, like Gecko) Chrome/106.0.0.0 Safari/537.36 Edg/106.0.1370.52" etag="q88i6cowGUaGykkctjBM" version="20.4.1" type="github">
  <diagram id="kYboP8p8oujJeenQ1NXY" name="Trang-1">
    <mxGraphModel dx="1038" dy="585" grid="1" gridSize="10" guides="1" tooltips="1" connect="1" arrows="1" fold="1" page="1" pageScale="1" pageWidth="827" pageHeight="1169" math="0" shadow="0">
      <root>
        <mxCell id="0" />
        <mxCell id="1" parent="0" />
        <mxCell id="gT0SAFAtI1Ffv882cZ5v-1" value="&lt;font style=&quot;font-size: 14px;&quot;&gt;Nhấn nút&lt;/font&gt;" style="rhombus;whiteSpace=wrap;html=1;" vertex="1" parent="1">
          <mxGeometry x="360" y="120" width="80" height="80" as="geometry" />
        </mxCell>
        <mxCell id="gT0SAFAtI1Ffv882cZ5v-6" value="" style="endArrow=classic;html=1;rounded=0;exitX=0.5;exitY=1;exitDx=0;exitDy=0;" edge="1" parent="1" source="gT0SAFAtI1Ffv882cZ5v-1">
          <mxGeometry width="50" height="50" relative="1" as="geometry">
            <mxPoint x="390" y="320" as="sourcePoint" />
            <mxPoint x="400" y="230" as="targetPoint" />
          </mxGeometry>
        </mxCell>
        <mxCell id="gT0SAFAtI1Ffv882cZ5v-7" value="" style="endArrow=none;html=1;rounded=0;" edge="1" parent="1">
          <mxGeometry width="50" height="50" relative="1" as="geometry">
            <mxPoint x="320" y="230" as="sourcePoint" />
            <mxPoint x="480" y="230" as="targetPoint" />
          </mxGeometry>
        </mxCell>
        <mxCell id="gT0SAFAtI1Ffv882cZ5v-8" value="1" style="text;html=1;align=center;verticalAlign=middle;resizable=0;points=[];autosize=1;strokeColor=none;fillColor=none;" vertex="1" parent="1">
          <mxGeometry x="450" y="200" width="30" height="30" as="geometry" />
        </mxCell>
        <mxCell id="gT0SAFAtI1Ffv882cZ5v-9" value="0 (Mặc định)" style="text;html=1;align=center;verticalAlign=middle;resizable=0;points=[];autosize=1;strokeColor=none;fillColor=none;" vertex="1" parent="1">
          <mxGeometry x="310" y="200" width="90" height="30" as="geometry" />
        </mxCell>
        <mxCell id="gT0SAFAtI1Ffv882cZ5v-10" value="" style="endArrow=classic;html=1;rounded=0;" edge="1" parent="1">
          <mxGeometry width="50" height="50" relative="1" as="geometry">
            <mxPoint x="320" y="230" as="sourcePoint" />
            <mxPoint x="320" y="270" as="targetPoint" />
          </mxGeometry>
        </mxCell>
        <mxCell id="gT0SAFAtI1Ffv882cZ5v-11" value="" style="endArrow=classic;html=1;rounded=0;" edge="1" parent="1">
          <mxGeometry width="50" height="50" relative="1" as="geometry">
            <mxPoint x="480" y="230" as="sourcePoint" />
            <mxPoint x="480" y="270" as="targetPoint" />
          </mxGeometry>
        </mxCell>
        <mxCell id="gT0SAFAtI1Ffv882cZ5v-12" value="&lt;font style=&quot;font-size: 14px;&quot;&gt;Thu âm&lt;/font&gt;" style="rounded=0;whiteSpace=wrap;html=1;" vertex="1" parent="1">
          <mxGeometry x="260" y="270" width="120" height="40" as="geometry" />
        </mxCell>
        <mxCell id="gT0SAFAtI1Ffv882cZ5v-14" value="&lt;font style=&quot;font-size: 14px;&quot;&gt;Nhận diện&lt;br&gt;giọng nói&lt;/font&gt;" style="text;html=1;align=center;verticalAlign=middle;resizable=0;points=[];autosize=1;strokeColor=none;fillColor=none;" vertex="1" parent="1">
          <mxGeometry x="230" y="220" width="90" height="50" as="geometry" />
        </mxCell>
        <mxCell id="gT0SAFAtI1Ffv882cZ5v-15" value="" style="endArrow=classic;html=1;rounded=0;exitX=0.5;exitY=1;exitDx=0;exitDy=0;" edge="1" parent="1" source="gT0SAFAtI1Ffv882cZ5v-12">
          <mxGeometry width="50" height="50" relative="1" as="geometry">
            <mxPoint x="390" y="400" as="sourcePoint" />
            <mxPoint x="320" y="350" as="targetPoint" />
          </mxGeometry>
        </mxCell>
        <mxCell id="gT0SAFAtI1Ffv882cZ5v-16" value="&lt;font style=&quot;font-size: 14px;&quot;&gt;Google API&amp;nbsp;&lt;br&gt;Speech to text&lt;/font&gt;" style="rounded=0;whiteSpace=wrap;html=1;" vertex="1" parent="1">
          <mxGeometry x="260" y="350" width="120" height="40" as="geometry" />
        </mxCell>
        <mxCell id="gT0SAFAtI1Ffv882cZ5v-18" value="" style="endArrow=classic;html=1;rounded=0;exitX=0.5;exitY=1;exitDx=0;exitDy=0;" edge="1" parent="1" source="gT0SAFAtI1Ffv882cZ5v-16">
          <mxGeometry width="50" height="50" relative="1" as="geometry">
            <mxPoint x="460" y="500" as="sourcePoint" />
            <mxPoint x="320" y="430" as="targetPoint" />
          </mxGeometry>
        </mxCell>
        <mxCell id="gT0SAFAtI1Ffv882cZ5v-19" value="&lt;font style=&quot;font-size: 14px;&quot;&gt;Viết lên Oled&lt;/font&gt;" style="rounded=0;whiteSpace=wrap;html=1;" vertex="1" parent="1">
          <mxGeometry x="260" y="430" width="120" height="40" as="geometry" />
        </mxCell>
        <mxCell id="gT0SAFAtI1Ffv882cZ5v-20" value="" style="endArrow=classic;html=1;rounded=0;exitX=0.5;exitY=1;exitDx=0;exitDy=0;" edge="1" parent="1" source="gT0SAFAtI1Ffv882cZ5v-19">
          <mxGeometry width="50" height="50" relative="1" as="geometry">
            <mxPoint x="460" y="410" as="sourcePoint" />
            <mxPoint x="320" y="510" as="targetPoint" />
          </mxGeometry>
        </mxCell>
        <mxCell id="gT0SAFAtI1Ffv882cZ5v-21" value="" style="endArrow=classic;html=1;rounded=0;" edge="1" parent="1">
          <mxGeometry width="50" height="50" relative="1" as="geometry">
            <mxPoint x="320" y="510" as="sourcePoint" />
            <mxPoint x="210" y="510" as="targetPoint" />
          </mxGeometry>
        </mxCell>
        <mxCell id="gT0SAFAtI1Ffv882cZ5v-22" value="" style="endArrow=classic;html=1;rounded=0;" edge="1" parent="1">
          <mxGeometry width="50" height="50" relative="1" as="geometry">
            <mxPoint x="210" y="510" as="sourcePoint" />
            <mxPoint x="210" y="160" as="targetPoint" />
          </mxGeometry>
        </mxCell>
        <mxCell id="gT0SAFAtI1Ffv882cZ5v-23" value="" style="endArrow=classic;html=1;rounded=0;entryX=0;entryY=0.5;entryDx=0;entryDy=0;" edge="1" parent="1" target="gT0SAFAtI1Ffv882cZ5v-1">
          <mxGeometry width="50" height="50" relative="1" as="geometry">
            <mxPoint x="210" y="160" as="sourcePoint" />
            <mxPoint x="510" y="360" as="targetPoint" />
          </mxGeometry>
        </mxCell>
        <mxCell id="gT0SAFAtI1Ffv882cZ5v-25" value="&lt;span style=&quot;font-size: 14px;&quot;&gt;Thu video&lt;/span&gt;" style="rounded=0;whiteSpace=wrap;html=1;" vertex="1" parent="1">
          <mxGeometry x="420" y="270" width="120" height="40" as="geometry" />
        </mxCell>
        <mxCell id="gT0SAFAtI1Ffv882cZ5v-26" value="&lt;font style=&quot;font-size: 14px;&quot;&gt;Nhận diện&lt;br&gt;thủ ngữ&lt;br&gt;&lt;/font&gt;" style="text;html=1;align=center;verticalAlign=middle;resizable=0;points=[];autosize=1;strokeColor=none;fillColor=none;" vertex="1" parent="1">
          <mxGeometry x="480" y="220" width="90" height="50" as="geometry" />
        </mxCell>
        <mxCell id="gT0SAFAtI1Ffv882cZ5v-27" value="" style="endArrow=classic;html=1;rounded=0;fontSize=14;exitX=0.5;exitY=1;exitDx=0;exitDy=0;" edge="1" parent="1" source="gT0SAFAtI1Ffv882cZ5v-25">
          <mxGeometry width="50" height="50" relative="1" as="geometry">
            <mxPoint x="460" y="400" as="sourcePoint" />
            <mxPoint x="480" y="330" as="targetPoint" />
          </mxGeometry>
        </mxCell>
        <mxCell id="gT0SAFAtI1Ffv882cZ5v-29" value="&lt;font style=&quot;font-size: 14px;&quot;&gt;Gửi video lên server&lt;/font&gt;" style="rounded=0;whiteSpace=wrap;html=1;" vertex="1" parent="1">
          <mxGeometry x="420" y="330" width="120" height="40" as="geometry" />
        </mxCell>
        <mxCell id="gT0SAFAtI1Ffv882cZ5v-30" value="&lt;span style=&quot;font-size: 14px;&quot;&gt;Vẽ khung xương&lt;/span&gt;" style="rounded=0;whiteSpace=wrap;html=1;" vertex="1" parent="1">
          <mxGeometry x="420" y="390" width="120" height="40" as="geometry" />
        </mxCell>
        <mxCell id="gT0SAFAtI1Ffv882cZ5v-31" value="" style="endArrow=classic;html=1;rounded=0;fontSize=14;exitX=0.5;exitY=1;exitDx=0;exitDy=0;" edge="1" parent="1" source="gT0SAFAtI1Ffv882cZ5v-30">
          <mxGeometry width="50" height="50" relative="1" as="geometry">
            <mxPoint x="460" y="520" as="sourcePoint" />
            <mxPoint x="480" y="450" as="targetPoint" />
          </mxGeometry>
        </mxCell>
        <mxCell id="gT0SAFAtI1Ffv882cZ5v-32" value="&lt;font style=&quot;font-size: 14px;&quot;&gt;Chiết xuất đặc trưng&lt;/font&gt;" style="rounded=0;whiteSpace=wrap;html=1;" vertex="1" parent="1">
          <mxGeometry x="420" y="450" width="120" height="40" as="geometry" />
        </mxCell>
        <mxCell id="gT0SAFAtI1Ffv882cZ5v-33" value="" style="endArrow=classic;html=1;rounded=0;fontSize=14;exitX=0.5;exitY=1;exitDx=0;exitDy=0;entryX=0.5;entryY=0;entryDx=0;entryDy=0;" edge="1" parent="1" source="gT0SAFAtI1Ffv882cZ5v-29" target="gT0SAFAtI1Ffv882cZ5v-30">
          <mxGeometry width="50" height="50" relative="1" as="geometry">
            <mxPoint x="460" y="390" as="sourcePoint" />
            <mxPoint x="510" y="340" as="targetPoint" />
          </mxGeometry>
        </mxCell>
        <mxCell id="gT0SAFAtI1Ffv882cZ5v-38" value="&lt;span style=&quot;font-size: 14px;&quot;&gt;Dự đoán thông qua mô hình AI&lt;/span&gt;" style="rounded=0;whiteSpace=wrap;html=1;" vertex="1" parent="1">
          <mxGeometry x="420" y="510" width="120" height="40" as="geometry" />
        </mxCell>
        <mxCell id="gT0SAFAtI1Ffv882cZ5v-39" value="" style="endArrow=classic;html=1;rounded=0;fontSize=14;exitX=0.5;exitY=1;exitDx=0;exitDy=0;" edge="1" parent="1" source="gT0SAFAtI1Ffv882cZ5v-38">
          <mxGeometry width="50" height="50" relative="1" as="geometry">
            <mxPoint x="460" y="640" as="sourcePoint" />
            <mxPoint x="480" y="570" as="targetPoint" />
          </mxGeometry>
        </mxCell>
        <mxCell id="gT0SAFAtI1Ffv882cZ5v-41" value="" style="endArrow=classic;html=1;rounded=0;fontSize=14;exitX=0.5;exitY=1;exitDx=0;exitDy=0;entryX=0.5;entryY=0;entryDx=0;entryDy=0;" edge="1" parent="1" source="gT0SAFAtI1Ffv882cZ5v-32" target="gT0SAFAtI1Ffv882cZ5v-38">
          <mxGeometry width="50" height="50" relative="1" as="geometry">
            <mxPoint x="460" y="490" as="sourcePoint" />
            <mxPoint x="510" y="440" as="targetPoint" />
          </mxGeometry>
        </mxCell>
        <mxCell id="gT0SAFAtI1Ffv882cZ5v-42" value="&lt;font style=&quot;font-size: 14px;&quot;&gt;Phát ra loa&lt;/font&gt;" style="rounded=0;whiteSpace=wrap;html=1;" vertex="1" parent="1">
          <mxGeometry x="420" y="570" width="120" height="40" as="geometry" />
        </mxCell>
        <mxCell id="gT0SAFAtI1Ffv882cZ5v-46" value="&lt;font style=&quot;font-size: 14px;&quot;&gt;Bắt đầu&lt;/font&gt;" style="rounded=0;whiteSpace=wrap;html=1;" vertex="1" parent="1">
          <mxGeometry x="340" y="40" width="120" height="40" as="geometry" />
        </mxCell>
        <mxCell id="gT0SAFAtI1Ffv882cZ5v-47" value="" style="endArrow=classic;html=1;rounded=0;fontSize=14;exitX=0.5;exitY=1;exitDx=0;exitDy=0;" edge="1" parent="1" source="gT0SAFAtI1Ffv882cZ5v-46" target="gT0SAFAtI1Ffv882cZ5v-1">
          <mxGeometry width="50" height="50" relative="1" as="geometry">
            <mxPoint x="460" y="310" as="sourcePoint" />
            <mxPoint x="510" y="260" as="targetPoint" />
          </mxGeometry>
        </mxCell>
        <mxCell id="gT0SAFAtI1Ffv882cZ5v-48" value="" style="endArrow=classic;html=1;rounded=0;fontSize=14;exitX=0.5;exitY=1;exitDx=0;exitDy=0;" edge="1" parent="1" source="gT0SAFAtI1Ffv882cZ5v-42">
          <mxGeometry width="50" height="50" relative="1" as="geometry">
            <mxPoint x="460" y="590" as="sourcePoint" />
            <mxPoint x="480" y="630" as="targetPoint" />
          </mxGeometry>
        </mxCell>
        <mxCell id="gT0SAFAtI1Ffv882cZ5v-49" value="" style="endArrow=classic;html=1;rounded=0;fontSize=14;" edge="1" parent="1">
          <mxGeometry width="50" height="50" relative="1" as="geometry">
            <mxPoint x="480" y="630" as="sourcePoint" />
            <mxPoint x="590" y="630" as="targetPoint" />
          </mxGeometry>
        </mxCell>
        <mxCell id="gT0SAFAtI1Ffv882cZ5v-50" value="" style="endArrow=classic;html=1;rounded=0;fontSize=14;" edge="1" parent="1">
          <mxGeometry width="50" height="50" relative="1" as="geometry">
            <mxPoint x="590" y="630" as="sourcePoint" />
            <mxPoint x="590" y="160" as="targetPoint" />
          </mxGeometry>
        </mxCell>
        <mxCell id="gT0SAFAtI1Ffv882cZ5v-51" value="" style="endArrow=classic;html=1;rounded=0;fontSize=14;entryX=1;entryY=0.5;entryDx=0;entryDy=0;" edge="1" parent="1" target="gT0SAFAtI1Ffv882cZ5v-1">
          <mxGeometry width="50" height="50" relative="1" as="geometry">
            <mxPoint x="590" y="160" as="sourcePoint" />
            <mxPoint x="510" y="360" as="targetPoint" />
          </mxGeometry>
        </mxCell>
      </root>
    </mxGraphModel>
  </diagram>
</mxfile>
